<svg width="30" height="30" viewBox="0 0 30 30" fill="none" xmlns="http://www.w3.org/2000/svg">
<rect width="30" height="30" fill="white" fill-opacity="0.01"/>
<path d="M12.5 23.75V18.125C12.5 17.462 12.7634 16.8261 13.2322 16.3572C13.7011 15.8884 14.337 15.625 15 15.625C15.6631 15.625 16.2989 15.8884 16.7678 16.3572C17.2366 16.8261 17.5 17.462 17.5 18.125V23.75H22.5C22.8315 23.75 23.1495 23.6183 23.3839 23.3839C23.6183 23.1495 23.75 22.8315 23.75 22.5V12.7112L15.8838 4.84125C15.6494 4.60691 15.3315 4.47527 15 4.47527C14.6686 4.47527 14.3507 4.60691 14.1163 4.84125L6.25001 12.7112V22.5C6.25001 22.8315 6.38171 23.1495 6.61613 23.3839C6.85055 23.6183 7.16849 23.75 7.50001 23.75H12.5ZM26.25 15.2125V22.5C26.25 23.4946 25.8549 24.4484 25.1517 25.1516C24.4484 25.8549 23.4946 26.25 22.5 26.25H7.50001C6.50545 26.25 5.55162 25.8549 4.84836 25.1516C4.1451 24.4484 3.75001 23.4946 3.75001 22.5V15.2125L3.70001 15.2625C3.21251 15.75 2.41251 15.75 1.92501 15.2625C1.43751 14.775 1.43751 13.975 1.92501 13.4875L12.3488 3.07375C13.052 2.37073 14.0056 1.9758 15 1.9758C15.9944 1.9758 16.948 2.37073 17.6513 3.07375L28.075 13.4875C28.5625 13.975 28.5625 14.775 28.075 15.2625C27.5875 15.75 26.7875 15.75 26.3 15.2625L26.25 15.2125Z" fill="#4F4F4F" fill-opacity="0.7"/>
</svg>
