<svg width="30" height="30" viewBox="0 0 30 30" fill="none" xmlns="http://www.w3.org/2000/svg">
<rect width="30" height="30" fill="white" fill-opacity="0.01"/>
<path fill-rule="evenodd" clip-rule="evenodd" d="M3.75 8.75001H7.5V11.25H3.75V8.75001ZM3.75 18.75H17.5V21.25H3.75V18.75ZM12.5 8.75001H26.25V11.25H12.5V8.75001ZM22.5 18.75H26.25V21.25H22.5V18.75Z" fill="#4F4F4F" fill-opacity="0.7"/>
<path fill-rule="evenodd" clip-rule="evenodd" d="M13.75 10C13.7592 10.4981 13.669 10.9931 13.4847 11.456C13.3005 11.9189 13.0258 12.3404 12.6768 12.696C12.3278 13.0515 11.9115 13.334 11.4521 13.5268C10.9927 13.7196 10.4995 13.819 10.0013 13.8191C9.50304 13.8192 9.0098 13.72 8.55035 13.5273C8.0909 13.3346 7.67445 13.0523 7.32533 12.6969C6.97621 12.3414 6.70141 11.92 6.51699 11.4572C6.33258 10.9943 6.24224 10.4994 6.25125 10.0013C6.26903 9.01871 6.67178 8.08241 7.37286 7.39378C8.07393 6.70516 9.01731 6.31926 10 6.31909C10.9827 6.31893 11.9262 6.70452 12.6275 7.39291C13.3288 8.0813 13.7319 9.01747 13.75 10ZM11.25 10C11.2554 9.83262 11.2271 9.66585 11.1667 9.50961C11.1064 9.35338 11.0153 9.21085 10.8988 9.09051C10.7823 8.97017 10.6429 8.87446 10.4887 8.80908C10.3345 8.74369 10.1687 8.70995 10.0013 8.70986C9.83379 8.70978 9.668 8.74335 9.51375 8.80859C9.3595 8.87382 9.21993 8.96939 9.10333 9.08962C8.98673 9.20984 8.89548 9.35227 8.835 9.50845C8.77452 9.66462 8.74604 9.83136 8.75125 9.99876C8.76135 10.3233 8.89733 10.6311 9.1304 10.8572C9.36347 11.0832 9.67534 11.2097 10 11.2099C10.3247 11.21 10.6367 11.0839 10.87 10.858C11.1033 10.6322 11.2396 10.3245 11.25 10ZM23.75 20C23.7592 20.4981 23.669 20.9931 23.4847 21.456C23.3005 21.9189 23.0258 22.3404 22.6768 22.696C22.3278 23.0515 21.9115 23.334 21.4521 23.5268C20.9927 23.7196 20.4995 23.819 20.0013 23.8191C19.503 23.8192 19.0098 23.72 18.5504 23.5273C18.0909 23.3346 17.6745 23.0523 17.3253 22.6969C16.9762 22.3414 16.7014 21.92 16.517 21.4572C16.3326 20.9943 16.2422 20.4994 16.2512 20.0013C16.269 19.0187 16.6718 18.0824 17.3729 17.3938C18.0739 16.7052 19.0173 16.3193 20 16.3191C20.9827 16.3189 21.9262 16.7045 22.6275 17.3929C23.3288 18.0813 23.7319 19.0175 23.75 20ZM21.25 20C21.2554 19.8326 21.2271 19.6659 21.1667 19.5096C21.1064 19.3534 21.0153 19.2109 20.8988 19.0905C20.7823 18.9702 20.6429 18.8745 20.4887 18.8091C20.3345 18.7437 20.1687 18.7099 20.0013 18.7099C19.8338 18.7098 19.668 18.7434 19.5138 18.8086C19.3595 18.8738 19.2199 18.9694 19.1033 19.0896C18.9867 19.2098 18.8955 19.3523 18.835 19.5084C18.7745 19.6646 18.746 19.8314 18.7512 19.9988C18.7614 20.3233 18.8973 20.6311 19.1304 20.8572C19.3635 21.0832 19.6753 21.2097 20 21.2099C20.3247 21.21 20.6367 21.0839 20.87 20.858C21.1033 20.6322 21.2396 20.3245 21.25 20Z" fill="#4F4F4F" fill-opacity="0.7"/>
</svg>
